<?xml version="1.0" standalone="no"?>
<!DOCTYPE svg PUBLIC "-//W3C//DTD SVG 20010904//EN"
 "http://www.w3.org/TR/2001/REC-SVG-20010904/DTD/svg10.dtd">
<svg version="1.0" xmlns="http://www.w3.org/2000/svg"
 width="1280.000000pt" height="1183.000000pt" viewBox="0 0 1280.000000 1183.000000"
 preserveAspectRatio="xMidYMid meet">
<metadata>
Created by potrace 1.15, written by Peter Selinger 2001-2017
</metadata>
<g transform="translate(0.000000,1183.000000) scale(0.100000,-0.100000)"
stroke="none">
<path d="M397 11819 c-94 -22 -178 -89 -227 -181 -55 -102 -53 -161 15 -518
53 -281 107 -568 250 -1325 35 -187 87 -459 114 -605 28 -146 71 -377 97 -515
l46 -250 -62 -115 c-328 -602 -538 -1308 -612 -2055 -17 -171 -17 -719 0 -900
106 -1145 534 -2161 1296 -3075 142 -171 479 -512 657 -666 982 -850 2208
-1389 3544 -1558 310 -40 488 -50 875 -50 466 -1 718 18 1129 85 910 146 1763
465 2523 943 1197 751 2074 1846 2491 3107 124 375 204 765 249 1204 16 168
17 738 0 905 -71 705 -242 1307 -548 1925 -46 94 -84 179 -84 190 0 10 86 473
191 1029 265 1406 285 1514 331 1751 31 161 39 226 35 277 -8 124 -86 236
-202 294 -54 26 -70 29 -155 29 l-95 -1 -260 -120 c-143 -67 -442 -206 -665
-309 -223 -103 -631 -293 -908 -421 -276 -129 -508 -234 -513 -234 -6 0 -66
31 -133 69 -858 486 -1838 779 -2856 856 -257 20 -785 19 -1045 0 -775 -58
-1499 -232 -2195 -528 -166 -70 -472 -219 -606 -295 l-92 -52 -1178 547 c-649
300 -1201 552 -1229 560 -55 15 -121 15 -178 2z"/>
</g>

<style>
	path { fill: #000; }
	@media (prefers-color-scheme: dark) {
		path { fill: #FFF; }
	}
</style>
</svg>
